<svg width="428" height="78" viewBox="0 0 428 78" fill="none" xmlns="http://www.w3.org/2000/svg">
<path d="M-275.052 109.301L-268.519 37.6188C-268.468 37.3472 -268.417 37.0671 -268.365 36.787C-268.162 36.8228 -267.958 36.8586 -267.764 36.9022C-266.64 36.1071 -265.517 35.3119 -264.393 34.5168L-263.056 34.587C-263.337 32.3779 -261.858 32.7025 -260.517 32.8248C-259.782 34.3071 -258.511 34.8285 -257.099 35.1212L-257.092 35.0442C-256.1 34.0903 -254.86 33.7115 -253.554 33.4766C-253.372 33.4588 -253.192 33.4665 -253.012 33.4829C-252.178 33.1188 -251.356 32.6154 -250.413 32.9431C-250.331 32.2343 -250.249 31.5254 -250.167 30.8166C-249.737 30.8213 -249.307 30.8345 -248.885 30.8385C-248.25 30.1024 -247.622 29.3571 -246.985 28.6125C-246.596 28.1301 -246.192 27.6664 -245.706 27.3396C-245.22 27.0128 -244.667 26.8129 -243.98 26.841C-243.994 26.6153 -244.008 26.3896 -244.023 26.1726C-243.788 26.1422 -243.561 26.1197 -243.335 26.0972C-242.86 25.3207 -242.384 24.5442 -241.908 23.7677C-242.191 23.4657 -242.474 23.1638 -242.756 22.8618C-239.957 22.3057 -238.603 18.6059 -235.193 19.3828C-233.087 18.401 -230.856 17.6464 -229.098 16.0375C-228.861 15.99 -228.624 15.9425 -228.387 15.8951C-228.202 15.5582 -228.007 15.2221 -227.821 14.8852C-228.06 14.009 -227.773 13.2154 -227.417 12.4365C-225.714 11.7115 -225.758 8.98031 -223.439 8.95871C-223.385 8.74784 -223.322 8.5292 -223.268 8.31834C-222.552 8.30595 -221.801 8.19318 -221.364 8.98377C-220.506 9.01886 -220.239 8.36142 -219.917 7.75219C-217.594 5.80635 -216.349 3.02002 -214.501 0.702978C-214.297 0.738788 -214.092 0.748897 -213.883 0.733352C-213.089 0.805782 -212.286 0.887551 -211.605 1.16539C-210.916 1.45257 -210.34 1.93661 -209.982 2.83224C-207.952 3.05183 -209.074 4.8741 -208.479 5.81722L-206.697 6.10918C-205.791 7.33088 -206.683 9.5538 -204.487 10.0387C-203.653 10.4341 -202.59 9.737 -201.597 10.8459C-203.41 11.0776 -205.48 11.1996 -204.06 13.7628C-203.88 13.7706 -203.693 13.8049 -203.517 13.8554C-202.04 13.1529 -201.489 14.4804 -200.773 15.2275C-200.143 15.8803 -199.847 16.8911 -198.688 16.8329C-198.553 17.0609 -198.418 17.2803 -198.292 17.5075C-198.477 17.9222 -198.662 18.3455 -198.837 18.761C-198.525 19.4971 -198.095 20.0714 -197.171 19.9485C-196.879 19.6817 -196.617 19.5416 -196.395 19.5619C-196.147 19.5845 -195.935 19.8109 -195.788 20.2817C-194.564 20.9369 -193.265 21.53 -192.998 23.1337C-192.784 24.7584 -192.046 26.1116 -190.92 27.2757C-190.842 27.6453 -190.763 28.0064 -190.684 28.376C-189.538 29.1277 -188.392 29.888 -187.247 30.6483C-184.907 31.25 -183.047 33.1627 -180.475 33.1123L-180.304 33.1279C-179.587 33.1933 -179.352 33.7412 -179.204 34.3847C-178.093 34.6672 -177.53 35.3917 -177.487 36.5347C-176.94 36.576 -176.383 36.618 -175.836 36.6593L-175.827 36.6601C-174.345 36.1825 -174.078 37.1303 -173.974 38.2616C-175.494 39.9959 -172.794 40.8116 -172.924 42.241C-172.936 42.3693 -172.965 42.5047 -173.03 42.6455C-170.556 44.1483 -171.33 46.8739 -170.649 49.0417C-170.415 49.788 -171.075 50.8757 -170.24 51.366C-169.201 51.9699 -168.891 50.7382 -168.359 50.1998C-167.913 49.7485 -167.466 49.4786 -166.979 49.5229C-166.723 49.5463 -166.457 49.6568 -166.167 49.8732C-165.722 49.7238 -165.286 49.5651 -164.841 49.4157C-164.645 49.3387 -164.448 49.2617 -164.252 49.1847C-163.341 48.9311 -162.735 47.5796 -161.599 48.1578C-161.134 47.7859 -160.662 47.4234 -160.19 47.0608C-159.918 46.7317 -159.639 46.4119 -159.369 46.0913C-158.144 46.3583 -156.919 46.6253 -155.703 46.9001C-153.724 48.2456 -151.923 48.2458 -150.69 45.9676C-150.017 44.7258 -148.968 45.0371 -147.97 44.9555C-147.331 43.9004 -146.395 43.7527 -145.314 44.0842L-144.76 44.8079C-144.57 44.7994 -144.382 44.8165 -144.187 44.8601C-142.94 45.6383 -141.345 45.8182 -140.938 47.7798C-140.626 49.2668 -139.181 48.8203 -138.065 48.4905C-137.588 47.8953 -137.112 47.3 -136.644 46.7041C-136.458 46.6519 -136.284 46.6247 -136.093 46.6162C-135.065 44.7854 -133.235 47.1098 -132.095 45.8501C-130.965 46.5917 -129.803 47.2672 -128.586 47.8182C-127.37 48.3692 -126.099 48.7957 -124.76 49.0386L-124.752 49.0394C-124.102 48.529 -123.546 47.9065 -122.935 47.3495C-122.324 46.7924 -121.651 46.31 -120.787 46.0953C-120.173 45.599 -119.469 45.8184 -118.783 45.8465C-117.902 45.7283 -117.021 45.6101 -116.14 45.5005C-115.782 45.2484 -115.423 45.0049 -115.073 44.752C-114.582 43.1484 -113.61 41.9339 -111.956 41.5667C-110.629 41.2735 -110.714 42.6811 -110.209 43.3744C-110.16 43.4997 -110.119 43.6156 -110.078 43.7401C-109.857 43.8639 -109.635 43.9876 -109.406 44.1207C-107.874 44.7954 -106.825 46.2373 -105.184 46.758C-105.021 46.9541 -104.875 47.1487 -104.728 47.3346C-104.659 47.3409 -104.59 47.3386 -104.522 47.3448C-103.368 47.45 -102.32 47.9511 -101.32 48.6982L-101.23 48.7495C-99.3962 48.8649 -98.5663 50.1574 -98.0564 51.6537C-97.7041 52.7042 -97.4629 53.6496 -96.0606 53.3891C-94.996 52.5799 -94.228 53.1332 -93.5175 53.9402C-93.5851 54.1152 -93.5495 54.2911 -93.4516 54.4467C-93.1752 54.8171 -92.9081 55.1953 -92.7055 55.6194C-92.6248 55.8684 -92.5705 56.1236 -92.5326 56.3687C-92.2522 56.5065 -91.9664 56.5843 -91.6843 56.61C-90.2232 56.7432 -88.7654 55.5901 -87.2987 55.5685C-87.0157 55.016 -86.7242 54.4644 -86.4334 53.9213C-84.378 54.0568 -82.3225 54.1924 -80.267 54.328C-79.3305 53.2224 -78.5897 51.8055 -77.4133 51.0929C-75.5523 49.9593 -75.4522 48.3891 -75.5137 46.6057C-74.5603 46.1661 -73.4269 46.0192 -72.8812 44.947C-72.0933 44.6218 -71.2845 44.3503 -70.5813 43.9139C-69.8789 43.486 -69.2835 42.9102 -68.9577 41.982C-68.2398 41.6677 -67.5126 41.3456 -66.7853 41.0235C-66.3113 40.5489 -65.8794 40.7264 -65.5417 41.18C-65.2202 41.6236 -65.4776 42.1784 -65.3837 42.6616C-65.0542 44.245 -64.4316 45.2597 -62.7437 43.8515C-62.4958 43.6842 -62.2488 43.5255 -61.9923 43.359C-61.5073 42.5747 -61.364 41.7593 -61.7498 40.887C-61.5657 40.852 -61.3823 40.8256 -61.2005 40.8162C-60.13 38.808 -58.992 38.6097 -57.8958 40.7636C-57.2896 41.958 -56.1914 42.5759 -55.2198 43.3549C-55.2013 43.5292 -55.1742 43.7043 -55.1385 43.8801C-55.3382 44.0863 -55.4129 44.3384 -55.4456 44.6029C-55.2135 45.0815 -55.0008 45.5842 -54.8076 46.111C-54.1671 47.2136 -53.3767 48.2781 -53.8838 49.6818C-53.9779 50.1479 -54.0635 50.6147 -54.1158 51.0932C-54.1609 51.3049 -54.1804 51.5188 -54.1914 51.7336C-54.1744 52.0199 -54.1558 52.2892 -53.9299 52.3616C-52.9155 52.8596 -51.9096 53.357 -50.8953 53.855C-49.6311 53.1245 -48.7552 54.0069 -47.7991 54.5773C-47.4438 53.8934 -47.0436 53.6624 -46.6164 53.7013C-46.1891 53.7403 -45.7185 54.0593 -45.2525 54.4297C-45.0638 54.6281 -44.893 54.8336 -44.7323 55.0554C-44.7168 55.0741 -44.702 55.1012 -44.6958 55.1277C-42.0772 55.4182 -39.5318 56.1334 -36.8905 56.2706C-36.3678 56.301 -35.9655 56.7088 -35.9331 57.2986C-35.8834 57.3204 -35.8337 57.3422 -35.7925 57.3632C-34.4887 56.5759 -32.8981 57.3681 -31.5717 56.7123C-31.1281 56.5715 -30.6891 56.3871 -30.2517 56.2199C-27.769 56.5842 -27.4437 57.0799 -28.7317 59.1114C-28.7317 59.1114 -28.7084 59.1394 -28.7014 59.1573C-27.1684 58.3132 -25.3577 58.5818 -23.7618 57.9937C-23.1496 57.7992 -22.5645 57.5246 -21.8996 57.6024C-21.0724 57.885 -20.1837 58.0609 -19.54 58.6547L-19.5229 58.6562C-19.2548 58.5512 -18.9821 58.4897 -18.6962 58.4726C-15.947 58.5592 -13.0993 59.1726 -10.7711 56.977C-10.5698 56.7537 -10.3546 56.5662 -10.1059 56.3903C-9.87905 56.2643 -9.63734 56.1655 -9.38873 56.0846C-9.2744 55.6808 -8.85089 55.3828 -8.47018 55.1759C-7.30936 54.5395 -6.83038 53.444 -6.22795 52.4115C-5.19595 51.4872 -3.94289 51.3511 -2.64322 51.366C-2.57179 51.4329 -2.48939 51.4749 -2.40861 51.5341C-2.20941 50.577 -1.5755 50.4277 -0.700121 50.7491C-0.710198 48.7805 0.818222 47.7979 1.99715 46.5849C2.71279 46.1065 3.54961 45.6217 4.3551 45.9541C8.15247 47.4911 12.0076 46.4099 15.8289 46.2663C17.5582 46.1995 18.8204 46.5303 18.902 48.4709C18.9551 49.8738 19.9379 49.6786 20.8125 50.0086C22.7116 50.7254 25.1495 50.2572 26.4903 52.2781C29.1493 50.7081 31.0501 50.8381 32.767 52.7034C33.221 53.8667 33.4901 55.0736 33.7056 56.3014C33.919 59.0653 35.1201 60.8231 38.1615 60.7292C43.6923 59.5073 48.528 61.8467 53.44 63.727C53.9309 63.9184 54.1746 64.4585 54.3795 64.9518C54.3919 65.0047 54.3958 65.0569 54.4082 65.1098C54.6917 65.2133 54.9542 65.358 55.1957 65.544C55.2749 65.6203 55.3449 65.7043 55.4147 65.7884C58.0937 64.7553 60.4752 65.3779 62.1803 67.5614C62.4118 65.5889 63.7807 65.4117 65.5424 65.8398C66.6289 66.4911 67.903 64.139 68.9435 65.3903C69.1804 65.4378 69.4057 65.5188 69.6193 65.6331C70.1451 66.009 70.59 66.5156 71.2565 66.6713C71.3858 65.7251 71.4329 64.5471 72.7534 66.7905C72.9778 67.1647 73.3669 67.4332 73.7864 67.178C75.2752 66.2522 76.4744 66.8966 77.676 67.5153C78.0419 67.471 78.4132 67.4617 78.7884 67.5045C79.0611 67.443 79.3392 67.4166 79.6235 67.4166C80.8687 67.7459 82.1911 67.2278 83.451 67.3944C84.1898 67.3236 84.9085 67.1906 85.586 66.8467C85.5371 66.7215 85.4883 66.5962 85.4829 66.4663C85.4767 66.155 85.5367 65.8757 85.6821 65.6041C85.8593 65.3614 86.0916 65.1754 86.3542 65.0354C86.3806 65.0292 86.4063 65.0315 86.4405 65.0346C86.5778 63.3383 87.8238 63.4692 89.2888 63.9393C90.0927 64.3836 90.8817 64.8957 91.8553 64.3286C94.1933 62.971 96.4605 64.0924 98.7614 64.4661C98.8524 64.2241 99.0241 64.0413 99.2759 63.9261C100.743 63.8959 102.033 64.2119 102.763 65.6507C103.02 66.0452 103.145 66.4708 103.042 66.9361C103.032 66.9525 103.023 66.9602 103.005 66.9672C103.41 67.3493 103.598 67.8325 103.635 68.3796C103.661 69.3141 103.561 70.2283 103.299 71.1107C103.512 71.9931 104.247 72.155 105.89 71.7092C108.159 71.1049 110.925 70.071 112.584 73.1392C112.583 73.1478 112.566 73.1462 112.556 73.1626C115.703 75.21 115.775 71.5832 117.27 70.589C117.404 70.4458 117.521 70.396 117.639 70.424C117.642 70.3898 117.662 70.3571 117.674 70.3237C118.648 68.7037 119.918 67.4472 121.554 66.414C124.096 64.7989 126.422 64.9936 128.813 66.5578C129.219 66.8279 129.679 66.9734 130.139 67.136C130.582 66.5292 130.936 65.7589 131.768 65.8951C131.822 65.8655 131.86 65.8344 131.923 65.8056C132.899 65.7738 133.438 66.194 133.476 67.1036C134.556 66.3132 136.027 67.0945 137.133 66.4013C139.103 65.8646 141.265 65.9667 142.936 64.4535C143.311 64.1251 143.884 64.1688 144.335 64.5205C143.967 63.2615 144.312 62.3091 145.506 61.6929C146.082 61.6074 146.652 61.5903 147.185 61.6993C147.883 61.4177 148.489 61.0069 148.721 60.0701C149.476 59.25 150.161 58.3545 150.993 57.6364C151.712 57.0287 152.622 56.0243 153.342 57.6778C154.437 57.2857 155.044 58.3767 155.842 58.8895C156.974 59.3293 158.114 59.2951 159.188 58.763C162.419 57.1588 165.234 58.0282 167.868 60.1324C169.175 61.2958 171.379 60.9442 172.423 62.5324C172.187 60.9661 173.764 60.7647 174.528 59.9539C174.783 59.796 175.068 59.6925 175.374 59.6513C175.887 59.6895 176.38 59.674 176.858 59.6227C176.986 59.548 177.113 59.4733 177.241 59.3986C177.22 59.25 177.208 59.0936 177.196 58.9458C177.874 55.5728 179.743 56.9945 181.436 57.7012C181.382 57.6358 181.326 57.5875 181.28 57.523C181.063 57.0716 181.062 56.6055 181.106 56.1262C181.135 55.801 181.24 55.4999 181.395 55.2206C182.514 53.1563 183.93 51.6111 186.589 52.121C187.8 52.3522 188.698 51.2863 189.813 51.0599C189.821 50.9744 189.853 50.9082 189.868 50.8319C189.985 50.4974 190.157 50.2111 190.396 49.9567C192.276 48.799 194.195 47.8864 196.531 48.1511C199.295 48.4634 200.253 49.5778 199.741 52.2583C199.851 52.4754 199.95 52.7088 200.04 52.95C200.047 52.9679 200.054 52.9858 200.053 53.0029C200.789 53.0528 201.576 53.2109 201.865 52.1239C203.476 50.795 205.051 49.3937 207.359 49.6904C207.416 49.6351 207.473 49.5799 207.523 49.5068C207.56 49.4757 207.598 49.436 207.635 49.4049C207.591 49.1333 207.625 48.8516 207.729 48.5676C208.302 47.662 209.057 47.0403 210.193 47.0575C211.538 47.8964 213.345 48.2078 214.054 49.7828L214.08 49.7851C214.569 49.8038 215.046 49.8646 215.515 50.0109L215.932 50.5408C217.009 49.9744 218.03 50.5939 218.366 51.4444C218.976 52.9757 220.167 53.326 221.373 53.7984C221.16 53.2094 221.327 52.6982 221.798 52.2578C221.899 52.1893 222.008 52.1302 222.117 52.0711C222.111 51.8548 222.216 51.6486 222.44 51.4533C223.997 51.483 225.577 51.8255 226.585 50.2172C226.643 49.9636 226.773 49.7597 226.945 49.5769C227.114 49.3333 227.336 49.1637 227.613 49.0595C228.025 48.7864 228.463 48.5242 228.704 48.1492C228.874 47.8886 229.067 47.6645 229.276 47.4419C232.004 46.068 233.327 43.3665 235.117 41.1218C235.565 40.55 235.867 39.8871 236.577 39.5635C236.877 39.4872 237.18 39.4717 237.486 39.5168C237.637 39.5651 237.785 39.6391 237.915 39.72C237.475 38.4976 238.124 37.9008 239.433 37.7181C241.1 37.4902 242.754 37.4942 244.336 38.1907C244.401 38.421 244.46 38.625 244.502 38.8273C244.521 38.8032 244.532 38.7782 244.543 38.7533C246.558 37.349 249.004 36.7003 250.749 34.7537C251.765 33.6294 253.017 33.4155 254.751 34.7042C256.155 35.7555 258.481 35.5705 260.462 35.8547C261.024 34.8961 261.767 34.774 262.677 35.3748L262.681 35.3319C263.269 34.8418 263.84 34.9112 264.385 35.3578C264.385 35.3578 264.412 35.343 264.421 35.3353C264.407 35.308 264.383 35.28 264.369 35.2528C264.586 33.5293 265.398 33.1286 266.91 34.0259C267.441 34.3418 267.909 34.6951 268.31 35.12C268.69 34.6368 269.077 34.1715 269.776 34.1576C271.761 34.5888 272.373 36.0082 272.57 37.7177C273.139 37.8127 273.593 38.1216 274.026 38.4804C274.347 38.6391 274.671 38.7722 275.014 38.8897C276.178 39.7294 278.497 39.5265 277.848 42.0132C277.693 42.2062 277.499 42.344 277.292 42.4459C278.85 43.123 280.034 44.0248 279.629 45.8261C280.578 45.0582 281.405 45.4356 282.288 46.6122C283.51 48.2339 284.57 50.0307 286.423 51.0712C287.333 51.3872 287.951 50.8393 288.585 50.3188C288.825 50.1422 289.094 50.0287 289.376 49.9594C291.681 50.0055 293.007 51.8957 294.499 53.119C296.087 54.4116 297.242 54.9742 299.145 54.1294C300.043 53.7279 301.127 53.3693 302.131 53.9787C301.549 52.3376 303.152 52.0436 303.939 51.2524C304.172 51.1528 304.412 51.0796 304.649 51.0322C304.58 50.0852 305.428 49.5756 306.327 49.1657C307.522 48.6187 308.776 48.1894 309.825 47.3616C310.124 47.2075 310.432 47.1321 310.761 47.1189C313.313 47.4723 315.317 45.903 317.536 45.1041C319.273 44.4771 320.764 44.4749 322.175 45.7254C322.309 45.8585 322.406 46.0227 322.478 46.1845C324.747 44.6394 327.191 44.3789 329.329 45.4109C329.35 45.3696 329.37 45.3369 329.4 45.2965C329.622 44.937 329.923 44.6538 330.279 44.436C330.165 43.9855 330.218 43.4983 330.289 43.0043C331.558 37.3032 335.951 35.2439 340.919 33.8586C341.405 33.9115 341.848 33.8742 342.262 33.7739C343.179 33.167 344.07 32.4629 345.097 32.168C345.596 31.7993 346.102 31.4399 346.652 31.1707C347.162 30.9669 347.681 30.7553 348.192 30.5343C349.233 30.3702 349.873 29.4879 350.774 29.0608C350.932 29.0235 351.088 29.0119 351.243 29.0173C351.011 28.254 351.166 27.5863 352.134 27.4588C353.19 27.3134 353.238 28.2067 353.11 28.9459C352.888 30.2461 353.636 31.1168 354.329 32.0256C354.593 33.094 355.131 34.1873 354.352 35.1778C355.298 35.4798 355.83 36.3482 356.59 36.9007C356.76 37.0198 356.911 37.1544 357.063 37.289C357.704 37.7186 358.128 38.2664 358.38 38.9107C358.656 39.376 358.895 39.8725 359.116 40.3759C359.228 40.6623 359.271 40.9509 359.278 41.2451C359.411 41.3003 359.535 41.3634 359.668 41.4101C359.949 41.5393 360.193 41.7081 360.406 41.9175C360.506 42.0474 360.589 42.1843 360.67 42.3298C362.939 42.2001 364.508 43.1371 365.007 45.7975C365.243 47.0791 366.059 47.7662 367.43 47.7617C370.866 47.7728 374.302 47.7925 377.387 45.8989C377.561 45.6903 377.745 45.4741 377.927 45.2664C377.838 43.5063 379.48 43.3539 380.465 42.9431C381.226 42.6327 381.603 43.884 381.912 44.6543C382.059 45.0302 382.476 45.655 382.493 45.6566C384.958 44.3192 387.668 46.4389 390.107 45.1078C390.332 44.9125 390.549 44.708 390.765 44.5119C391.057 43.2008 392.596 42.4781 392.45 40.9631C393.064 40.7429 393.686 40.5321 394.3 40.3205C394.888 40.0202 395.303 39.9113 395.593 39.9378C396.636 40.0328 396.189 41.813 396.731 42.4838C398.184 42.6162 399.634 42.7743 401.085 42.9238L401.087 42.9067C401.129 42.2547 401.171 41.6026 401.213 40.9505C401.499 40.3639 401.777 39.7764 402.054 39.189C403.622 37.7784 405.322 37.8385 406.973 38.9124C407.641 39.3358 408.282 39.679 409.021 39.7981C409.022 39.7896 409.023 39.7724 409.041 39.7654C409.265 39.5787 409.502 39.4363 409.763 39.3134C409.937 39.2947 410.119 39.2854 410.299 39.2932C410.542 38.5213 410.961 37.8865 411.655 37.4578C411.958 36.8727 412.254 36.2782 412.557 35.6931C414.571 31.9327 416.446 31.6893 419.14 34.7397C419.945 35.6501 420.982 36.3661 421.917 37.1676L421.926 37.1684C422.26 36.1546 422.592 35.1493 422.935 34.1362C423.141 33.9479 423.349 33.7511 423.556 33.5543C424.865 33.6649 425.139 34.9067 425.873 35.6467C427.548 36.1791 429.342 36.3427 430.896 37.2524C433.943 35.7782 434.402 38.1071 435.011 40.2166C438.453 38.0016 440.91 40.1586 443.282 42.2045C444.553 43.2955 445.703 44.1943 447.436 43.3339C448.384 44.3696 449.375 44.9346 450.409 45.0288C451.443 45.1231 452.555 44.7326 453.695 43.8612L453.671 43.8332C454.097 43.0349 454.795 42.7533 455.648 42.7534C457.123 42.2664 458.603 41.8144 460.056 41.2737C460.93 40.9478 461.533 41.2358 461.816 42.0124C462.793 44.7078 464.293 44.7063 465.93 44.0443C466.329 43.8217 466.711 43.5113 467.078 43.0787C467.324 42.7387 467.538 42.37 467.752 42.0097C468.04 41.5958 468.318 41.1896 468.597 40.7749C470.502 39.818 472.221 38.637 473.61 37.0116C473.643 36.9369 473.675 36.8622 473.7 36.7782C473.745 36.67 473.797 36.5712 473.849 36.4724C473.842 36.3596 473.87 36.2414 473.967 36.1208C474.069 35.9488 474.153 35.7753 474.222 35.5917C474.45 35.4571 474.668 35.3302 474.896 35.1957C475.157 34.9693 475.436 34.753 475.722 34.546C475.862 34.5157 476.011 34.4947 476.151 34.4644C477.279 34.9469 478.37 34.9859 479.36 34.1355C479.612 33.5543 479.85 33.2999 480.055 33.3186C480.286 33.3396 480.489 33.6687 480.67 34.229C481.783 34.2182 481.966 33.0526 482.715 32.5944C484.238 31.853 484.946 32.5042 485.135 34.0231C488.794 34.9952 492.337 34.5933 495.803 33.2436C495.807 33.2008 495.777 33.1549 495.773 33.1027C496.051 32.895 496.337 32.6795 496.615 32.4718C496.882 32.0906 497.15 31.7093 497.416 31.3366C498.784 29.2779 500.337 30.386 501.868 31.0779C501.857 31.2062 501.845 31.3346 501.833 31.463C501.851 31.456 501.86 31.4567 501.869 31.4489C506.396 30.4635 510.931 29.5737 515.609 30.1554C516.767 30.3041 517.566 30.7998 517.892 31.9514C519.282 33.7178 520.71 35.4446 523.187 35.679C523.363 35.6432 523.529 35.6153 523.704 35.5881C523.841 34.7376 524.454 34.2583 525.09 33.7985C525.135 33.397 525.181 32.987 525.227 32.5855C528.309 30.2429 531.752 31.2298 535.126 31.4511C536.317 31.5251 536.453 32.6852 537.201 33.1762C536.978 33.5357 536.747 33.8944 536.517 34.2531C536.469 35.1549 536.63 35.9377 537.626 36.2615C538.03 36.0825 538.436 35.8779 538.829 35.9137C539.086 35.9371 539.341 36.064 539.58 36.3792C539.967 38.6497 543.063 40.1314 541.494 42.9745C541.69 43.1908 541.876 43.4149 542.063 43.639C543.129 43.9433 543.761 44.5705 543.714 45.7486C544.066 46.5228 544.642 47.0069 545.5 47.1369C546.917 44.7373 548.637 44.2037 550.793 46.2643C553.031 47.6075 555.007 45.9667 557.105 45.735C557.703 45.8844 558.3 46.0424 558.907 46.1926C560.099 45.4037 561.306 44.6335 562.492 43.8181C563.53 43.1102 564.532 42.8908 565.528 43.8791C565.752 43.8822 565.966 43.8931 566.189 43.9048L566.139 43.978C568.552 43.1277 570.739 42.3778 572.082 45.7969C572.614 47.14 574.746 46.4452 576.112 46.8632C578.297 45.8627 577.865 48.5246 579.031 48.9589C579.745 49.6367 580.367 50.6599 581.244 50.6795C581.295 50.3044 581.364 49.931 581.407 49.5466C581.779 48.1219 582.71 47.0763 583.786 46.1387C584.324 45.6268 585.093 45.4121 585.546 44.7889C585.753 44.5057 585.969 44.301 586.182 44.1392C586.978 42.9775 588.164 43.1029 589.344 44.1426C590.285 44.9791 591.231 45.3759 592.261 45.4095C592.644 45.2804 593.026 45.0563 593.422 44.6782C593.685 44.5382 593.969 44.4518 594.265 44.4098C594.367 44.4277 594.451 44.4526 594.535 44.4776C595.089 43.9757 595.752 43.691 596.279 44.0583C598.425 45.5656 600.057 44.7652 601.674 43.7647C601.819 43.3033 601.938 42.8481 601.871 42.3586C602.57 40.8344 603.182 39.2159 605.186 38.9757C605.029 38.6162 605.1 38.312 605.502 38.0638L605.478 38.0358C605.73 37.446 606.069 36.9418 606.701 36.7232C606.816 35.4564 607.913 34.866 608.96 34.2451C609.749 34.1876 610.511 33.9636 611.284 33.801C611.262 33.661 611.343 33.5303 611.543 33.4104C611.577 33.2323 611.618 33.0634 611.659 32.8946C612.055 32.9047 612.442 32.9056 612.838 32.9157C614.456 31.9844 615.038 33.2544 615.782 34.2629C617.391 36.4635 618.545 39.2094 621.809 39.5069C622 39.4984 622.198 39.4992 622.387 39.4993C622.598 39.3631 622.788 39.3545 622.957 39.4821C623.098 39.3569 623.241 39.206 623.369 39.0278C624.95 38.5074 626.657 40.4838 628.175 38.7667C628.251 38.5924 628.32 38.4089 628.38 38.2245C628.606 38.0984 628.833 37.9809 629.059 37.8634C630.335 36.6162 631.597 35.3504 633.106 34.3919C633.877 34.1515 634.702 34.2698 635.094 34.8838C636.846 37.5979 639.991 39.1101 641.227 42.2779C642.109 44.5158 643.594 42.5885 644.807 42.6042C644.814 42.5272 644.846 42.461 644.862 42.3848C646.138 40.6715 647.865 40.0608 649.963 39.7342C652.891 39.2762 655.694 38.2026 658.677 37.8013C660.535 37.5564 660.931 34.8136 662.96 34.3943C663.77 33.9159 664.449 33.2701 665.143 32.6601C667.32 32.1164 667.74 34.131 668.534 35.2476C669.168 36.1339 669.784 36.6561 670.524 36.7667C671.075 36.6703 671.618 36.4867 672.18 36.2704C672.247 35.1632 672.869 34.7625 673.928 35.3337C674.726 35.7516 675.445 35.9898 676.295 35.6443C676.494 35.4467 676.685 35.2398 676.876 35.0413C678.337 36.2187 678.932 38.5687 681.266 38.5829C681.268 38.5658 681.268 38.5572 681.27 38.54C682.159 36.9123 683.23 37.1739 684.178 38.3995C684.973 39.4126 685.02 40.6856 685.197 41.9617C685.503 44.1817 685.858 46.5269 688.576 47.3356L682.37 115.423L682.151 115.464L681.202 110.941L679.06 112.032L676.196 109.803L675.934 112.679L672.692 114.601L671.354 110.561L668.584 111.077C668.584 111.077 666.512 111.311 665.776 111.926C665.039 112.54 662.333 116.048 662.294 114.681C662.246 113.313 661.739 109.513 661.739 109.513L658.724 110.834L656.858 114.479L654.836 110.48L652.469 110.264L649.916 112.189C649.916 112.189 646.415 109.479 646.461 108.974C646.507 108.469 643.955 110.282 643.955 110.282L642.567 112.374L640.039 114.016L637.64 112.261L634.963 113.553L630.401 115.019L628.452 112.105L628.683 109.572C628.683 109.572 624.216 111.892 623.711 111.846C623.207 111.8 622.097 110.844 622.097 110.844L617.844 110.802L615.704 113.679L612.986 109.85L609.962 113.156L610.332 109.09L608.748 107.755L606.492 110.104L603.806 109.695L600.836 112.324C600.836 112.324 599.844 113.934 599.579 113.064C599.315 112.186 598.6 110.757 598.678 109.91L598.906 107.402L595.038 108.723L594.899 110.247L593.645 112.756L592.516 110.202L590.774 112.495L588.578 112.294L587.721 110.447L586.045 110.122L583.34 111.817L580.336 113.01L578.218 113.844L575.944 112.61L574.701 111.306L572.777 111.812L570.645 114.69L566.743 116.38L563.53 116.087L561.149 117.915L558.231 116.286L556.926 115.658L555.911 117.438L553.825 119.811L546.895 119.179L545.205 120.898L543.684 120.759L542.961 119.33L539.796 120.405L533.761 123.1L531.843 121.734L527.923 119.841L524.548 119.533L523.795 118.437L521.599 120.119L517.875 121.652L513.825 121.283L512.685 122.543L509.481 122.251L506.556 124.375L504.113 126.879L504.545 122.146L502.706 121.806L500.216 122.942L495.669 124.237L493.808 125.94L491.51 123.176L488.452 123.07L486.303 122.356L482.903 122.219C482.903 122.219 481.351 122.422 481.08 121.716C480.8 121 479.868 120.069 479.868 120.069L477.681 121.57L477.573 122.76L475.06 124.231L473.917 121.745L472.924 119.6L471.264 120.985L470.263 122.603L468.806 123.661L466.61 123.461L466.717 122.28L464.243 123.245L463.234 123.153L462.371 121.374L461.285 120.248L458.608 121.541L456.52 120.159L454.783 122.383L452.245 122.152L452.569 118.6L450.102 119.574L449.118 121.021L447.931 122.785L447.224 121.185L445.564 122.57L445.672 121.389L443.833 121.048L441.941 123.094L440.591 122.971L440.837 120.266L438.053 122.739L436.439 123.619L436.733 120.401L435.088 121.615L433.498 120.443L432.388 121.369L431.039 123.127L426.809 122.742L425.986 120.613L425.109 120.878L421.672 121.246L420.763 119.973L419.677 118.847L418.196 121.957L416.658 120.108L415.496 121.711L413.804 121.556L411.995 119.001L410.946 117.369L410.822 118.721L408.464 118.506L407.415 116.875L405.692 117.063L402.961 117.151L401.86 116.196L400.306 114.518L398.498 113.844L397.186 113.215L395.254 113.893L394.098 115.324L391.431 116.609L389.785 115.95L389.708 116.797L388.297 119.232L385.101 120.64L384.147 121.753L382.455 121.599L382.502 121.085L379.242 121.306L377.759 118.953L375.818 117.749L374.175 120.844L372.996 120.737L373.135 119.213L372.35 118.46L370.891 117.645L369.86 119.596L369.66 121.796L367.914 120.437L366.034 118.566L365.228 118.147L365.135 119.166L362.691 119.797L362.567 121.15L359.859 120.903L358.068 121.931L355.577 123.067L354.714 121.288L354.869 119.594L353.287 122.013L353.025 124.888L350.588 123.639L349.309 126.423L349.232 127.27L347.834 125.779L347.896 125.103L345.684 125.074L344.429 125.805L343.139 123.133L343.37 120.591L342.54 120.343L341.097 121.238L339.328 121.931L337.132 121.731L337.009 123.084L334.766 123.388L334.074 121.625L332.43 122.839L331.244 124.603L331.429 122.575L329.45 121.885L328.038 122.438L324.825 122.146L325.409 125.099L324.64 124.174L323.213 124.898L322.151 127.192L320.357 124.466L320.604 121.761L319.726 120.145L318.468 119.003L317.422 121.126L315.933 122.526L313.597 121.977L313.767 120.111L314.797 118.159L312.921 120.034L311.3 121.086L310.376 119.974L308.428 118.942L307.318 119.868L307.457 118.345L305.858 117.172L302.754 117.571L300.589 117.037L299.487 116.082L297.462 115.898L295.079 115.853L292.526 115.784L291.424 114.838L290.322 113.883L288.647 115.431L287.863 114.677L284.984 116.296L284.676 119.677L283.447 116.329L281.501 117.17L279.615 115.462L279.352 118.338L277.21 119.342L275.062 120.51L273.16 118.973L272.298 117.186L270.537 117.879L269.643 116.434L268.889 113.466L268.704 115.494L264.686 116.664L264.932 113.96L263.488 112.974L262.116 114.894L260.074 112.999L258.383 114.726L258.152 117.26L255.621 115.156L254.07 115.352L252.407 112.982C252.407 112.982 250.6 114.19 250.694 115.044C250.78 115.906 250.353 118.603 250.353 118.603L248.389 114.152L249.521 112.892L247.371 112.186L247.51 110.663L245.749 111.357L244.19 113.433L242.32 113.435L239.83 114.571C239.83 114.571 238.922 115.171 238.636 114.627C238.34 114.09 237.85 112 237.85 112L236.345 113.572L234.01 114.895L232.365 114.228L232.211 115.922L230.69 115.784L229.618 114.495L228.019 113.322L225.853 110.907L225.652 113.107L223.977 114.663L222.226 118.939L219.998 117.2L218.221 116.183L218.452 113.641L215.458 114.732L214.261 112.923L214.632 108.857L212.584 110.725L211.248 108.549L209.789 107.734L210.144 103.84L208.67 105.078C208.67 105.078 207.887 106.197 207.444 105.475C206.993 104.752 206.705 102.335 206.705 102.335L206.906 100.136L204.602 101.117L203.802 100.535L202.621 98.5542L203.715 95.9181L201.38 97.2414L199.643 99.4737L197.725 98.1079L195.924 97.262L194.17 97.7839L193.177 95.6394L191.702 94.9958L192.21 89.4153L188.238 89.9853L187.068 91.6736L184.236 92.7791L182.699 92.8117C182.699 92.8117 180.97 93.1632 180.487 92.7827C180.014 92.3944 179.183 90.2732 179.183 90.2732L178.936 92.9779L176.159 93.5791L176.328 91.7218L174.482 93.2537L172.946 93.2863L171.308 92.6279L170.648 90.5137L168.894 91.0442L168.647 93.7489L166.955 93.5947L165.069 91.8866C165.069 91.8866 165.504 90.8992 165.192 90.5343C164.89 90.1615 162.833 88.4379 162.833 88.4379L162.903 87.6761L159.938 88.3465L158.286 89.7322L155.749 89.5009L153.949 90.5279L151.366 92.683L149.498 94.5581L147.207 93.5035L147.007 95.7032L144.944 97.7331L143.415 95.885L141.862 94.2073L141.045 91.9149L139.681 93.8359L137.827 93.6669L133.845 92.4496L132.402 93.3451L131.556 93.268L130.192 95.189L127.561 94.0948L126.483 96.5598L123.031 97.0995L121.51 96.9609L120.423 95.8349L119.498 92.8507L118.025 95.9615L117.04 97.4079L115.707 98.9865L115.537 100.852L114.086 101.747L112.642 100.761L110.967 102.309L109.193 105.047L106.305 103.083L106.475 101.217L105.184 96.6638L104.736 101.577L103.215 101.438L101.555 102.823L100.307 105.264L98.1728 104.387L96.9008 105.299L95.162 103.768L93.7347 104.492L93.5647 106.358L90.2058 107.761L88.9104 108.834L87.4666 107.848L87.3894 108.695L84.953 107.446L83.4563 110.727L80.7109 112.867L80.0358 112.806L79.36 110.863L80.5687 108.755L78.4524 111.462L76.5739 111.463L75.2699 110.835L72.9497 110.106L73.5023 113.401L72.4715 115.353L70.7882 115.199L69.865 115.97L63.9519 115.431L62.6565 116.503L60.2981 116.289L60.575 113.25L59.4521 116.211L58.4205 118.171L57.0705 118.048L56.4866 115.095L55.3785 117.894L54.1072 118.797L54.385 115.75L52.3677 117.274L50.8943 118.504L49.8775 118.411L50.1552 115.364L48.2637 119.291L45.9904 119.938L44.9657 118.136L43.7092 118.876L42.6143 117.749L41.6208 117.495L40.0773 119.399L38.387 121.118L36.9978 119.628L35.1826 120.826L35.1054 121.673L33.0802 121.489L31.312 124.063L30.0618 122.75L28.9597 121.795L27.2679 121.641L27.3912 120.288L24.2164 117.781L24.0159 119.981L22.0664 117.076L20.9254 116.454L20.6009 120.015L19.4849 121.104L18.5141 120.506L17.2256 119.707L14.5341 121.162L12.8812 120.675L13.4357 119.129L14.4769 116.212L11.0347 122.215C11.0347 122.215 9.62221 120.887 9.66823 120.382L9.86871 118.182L8.56627 119.427L6.81353 121.83L5.32218 119.476L3.26744 121.507L2.03529 123.777L1.28136 122.69L-0.526084 122.007L-0.850611 125.568L-1.86745 125.475L-4.20235 126.798L-4.12512 125.951L-6.90344 124.671L-8.44082 122.822L-8.62649 124.859L-10.5337 127.067L-11.6529 124.411L-12.6065 125.515C-12.6065 125.515 -13.8153 127.622 -14.2508 126.728C-14.6785 125.844 -16.3471 123.638 -16.3471 123.638L-17.7213 123.685L-18.8224 124.612L-18.8997 125.459C-18.8997 125.459 -19.3538 126.66 -19.84 126.417C-20.3262 126.175 -22.2523 124.808 -22.2523 124.808L-23.664 125.361L-23.8957 127.903L-24.8337 128.836L-26.1838 128.713L-28.1465 129.734L-29.7907 130.947L-29.96 132.805L-34.0189 132.435L-35.12 133.361L-36.3398 131.714L-36.4786 133.238C-36.4786 133.238 -37.277 134.528 -38.1229 134.451L-40.6523 134.221C-40.6523 134.221 -43.172 137.573 -42.7623 136.764C-42.3433 135.948 -41.2993 130.071 -41.2993 130.071L-42.7961 127.777L-44.1331 125.714L-43.6646 131.728L-43.8651 133.928L-45.7991 130.852L-46.6762 131.117L-48.7474 131.438L-49.9898 130.133L-49.7121 127.086L-52.0775 128.744L-53.799 130.805L-54.5216 129.375L-54.3984 128.023L-56.5468 129.191C-56.5468 129.191 -57.1602 128.453 -57.2539 127.59C-57.3476 126.727 -57.8838 125.142 -57.8838 125.142C-57.8838 125.142 -60.0633 126.652 -60.3123 125.602L-60.5535 124.562L-63.8264 126.818L-66.8685 126.541L-70.2905 126.747L-72.9836 126.329L-74.6435 127.714L-77.3125 127.125C-77.3125 127.125 -76.6671 129.402 -77.513 129.325C-78.359 129.248 -81.1545 126.266 -81.1545 126.266L-82.1332 123.959L-81.9483 121.93L-83.9023 124.652L-85.2524 124.529L-88.7751 125.744C-88.7751 125.744 -89.7842 123.771 -89.7226 123.095L-89.3528 119.038L-92.1988 122.187L-93.5324 123.774L-95.372 121.553L-98.3679 120.77L-100.829 119.692L-102.234 116.491L-102.065 114.634L-103.74 116.19L-104.603 114.403L-107.614 113.783L-108.669 112.323L-110.206 112.356L-110.407 114.555L-112.867 113.477L-112.222 115.754L-113.191 117.029L-114.821 116.198L-116.107 119.154L-116.924 116.861L-116.754 115.004L-118.399 116.218L-120.766 116.002L-121.619 114.215L-123.615 111.815L-123.446 109.958L-125.347 108.413L-125.671 111.973L-130.296 112.233L-130.095 110.034L-133.005 111.987L-134.797 111.141L-137.071 109.907L-139.127 110.056L-140.773 109.397L-142.139 107.564L-144.088 106.54L-145.159 105.243L-145.02 103.72L-146.564 105.633L-148.619 107.664L-149.853 108.06L-150.659 107.642L-152.103 106.656L-154.12 108.181L-155.128 108.089L-156.449 105.75L-158.078 106.802L-159.095 106.709L-160.004 105.426L-160.718 103.998L-162.875 105.165L-164.225 105.042C-164.225 105.042 -166.482 105.518 -166.25 104.857C-166.017 104.197 -165.126 101.887 -165.126 101.887L-167.407 104.415L-169.695 105.225L-169.557 103.701L-172.211 102.95L-174.096 103.124C-174.096 103.124 -175.314 105.231 -175.422 104.53C-175.531 103.839 -176.168 101.563 -176.168 101.563L-177.805 104.486L-180.505 104.24L-180.304 102.04L-182.452 105.089L-182.267 103.061L-184.067 104.088C-184.067 104.088 -185.727 103.591 -185.852 103.071C-185.968 102.551 -186.831 100.763 -186.831 100.763L-189.135 101.753L-188.965 99.887L-192.557 100.069L-194.376 97.5212L-194.128 94.8079L-195.788 98.0743L-195.157 100.514L-197.703 98.5814L-197.472 96.0394L-199.519 99.7796L-201.163 100.993L-203.375 99.0828L-205.664 99.9012L-205.803 101.425L-208.489 99.1345L-210.607 99.9599L-212.346 98.4378L-213.432 99.1932L-216.567 98.053L-215.626 100.866L-217.723 99.4839L-219.243 101.227L-223.046 98.1444L-224.505 99.211L-227.072 101.195L-229.3 99.4557L-231.264 98.5949L-233.412 99.7627L-235.782 93.9111L-234.933 99.6241L-236.322 99.8341L-237.424 98.8792L-237.733 102.269L-239.915 100.024L-240.054 101.548L-242.722 102.841L-243.988 101.699L-244.935 100.93L-246.531 103.512L-248.069 101.663C-248.069 101.663 -250.467 101.79 -250.592 101.269C-250.707 100.741 -251.229 98.9932 -251.229 98.9932L-252.724 104.147L-254.019 105.22L-256.409 105.348L-260.127 103.127L-262.811 102.71L-264.813 104.064L-266.425 106.817L-268.669 105.249L-271.4 105.345L-272.369 106.62L-274.339 109.513L-275.052 109.301Z" fill="#121212"/>
</svg>
