<svg width="428" height="56" viewBox="0 0 428 56" fill="none" xmlns="http://www.w3.org/2000/svg">
<path d="M-171.744 164.887L-166.371 30.5641C-166.329 30.3408 -166.287 30.1105 -166.245 29.8802C-166.078 29.9097 -165.91 29.9391 -165.751 29.9749C-164.827 29.3212 -163.903 28.6674 -162.98 28.0137L-161.88 28.0713C-162.111 26.2551 -160.896 26.522 -159.794 26.6225C-159.189 27.8412 -158.145 28.2699 -156.984 28.5105L-156.979 28.4472C-156.163 27.6629 -155.144 27.3514 -154.071 27.1583C-153.921 27.1436 -153.773 27.15 -153.625 27.1635C-152.939 26.8641 -152.264 26.4502 -151.488 26.7196C-151.421 26.1368 -151.354 25.554 -151.286 24.9712C-150.933 24.9751 -150.58 24.986 -150.233 24.9892C-149.71 24.3841 -149.194 23.7712 -148.671 23.159C-148.351 22.7624 -148.019 22.3812 -147.619 22.1125C-147.22 21.8439 -146.766 21.6795 -146.201 21.7025C-146.213 21.517 -146.224 21.3315 -146.236 21.153C-146.043 21.128 -145.857 21.1095 -145.671 21.091C-145.28 20.4526 -144.889 19.8141 -144.498 19.1757C-144.73 18.9275 -144.962 18.6793 -145.195 18.431C-142.894 17.9738 -141.781 14.9319 -138.978 15.5705C-137.247 14.7633 -135.413 14.1429 -133.968 12.82C-133.774 12.781 -133.579 12.742 -133.384 12.7029C-133.231 12.426 -133.072 12.1496 -132.919 11.8726C-133.115 11.1523 -132.879 10.4998 -132.587 9.85942C-131.187 9.26328 -131.223 7.01781 -129.316 7.00002C-129.272 6.82666 -129.22 6.6469 -129.176 6.47352C-128.588 6.46333 -127.97 6.37059 -127.611 7.02058C-126.906 7.0494 -126.687 6.50889 -126.421 6.00801C-124.512 4.40815 -123.489 2.11733 -121.97 0.212311C-121.802 0.241744 -121.633 0.250035 -121.462 0.237255C-120.809 0.296794 -120.149 0.363999 -119.59 0.592428C-119.023 0.82852 -118.55 1.22647 -118.256 1.96282C-116.586 2.14332 -117.509 3.64153 -117.02 4.41692L-115.555 4.65694C-114.811 5.66135 -115.544 7.48896 -113.739 7.88762C-113.053 8.21265 -112.18 7.6395 -111.363 8.55117C-112.854 8.74172 -114.555 8.84207 -113.388 10.9494C-113.24 10.9558 -113.086 10.984 -112.941 11.0256C-111.727 10.4479 -111.275 11.5394 -110.686 12.1535C-110.168 12.6903 -109.925 13.5213 -108.972 13.4734C-108.862 13.6608 -108.751 13.8412 -108.647 14.0281C-108.799 14.369 -108.951 14.717 -109.095 15.0586C-108.839 15.6638 -108.485 16.136 -107.726 16.035C-107.486 15.8155 -107.27 15.7004 -107.087 15.717C-106.884 15.7356 -106.71 15.9218 -106.589 16.3088C-105.583 16.8475 -104.515 17.3351 -104.296 18.6536C-104.12 19.9893 -103.513 21.1019 -102.588 22.059C-102.523 22.3629 -102.458 22.6597 -102.394 22.9635C-101.452 23.5816 -100.51 24.2066 -99.5686 24.8317C-97.6449 25.3263 -96.1169 26.8989 -94.0027 26.8574L-93.8622 26.8702C-93.2722 26.924 -93.0796 27.3744 -92.9578 27.9035C-92.0442 28.1357 -91.5815 28.7313 -91.5468 29.6711C-91.0967 29.7051 -90.6395 29.7396 -90.1893 29.7735L-90.1823 29.7742C-88.9638 29.3815 -88.7445 30.1607 -88.6592 31.0909C-89.9082 32.5167 -87.6889 33.1873 -87.796 34.3625C-87.8056 34.468 -87.83 34.5793 -87.883 34.6951C-85.8498 35.9306 -86.4861 38.1715 -85.9262 39.9538C-85.7342 40.5673 -86.276 41.4616 -85.5904 41.8647C-84.7362 42.3612 -84.481 41.3485 -84.0441 40.9058C-83.6774 40.5348 -83.3102 40.3129 -82.9099 40.3494C-82.6991 40.3686 -82.4808 40.4594 -82.2421 40.6373C-81.8768 40.5145 -81.5179 40.384 -81.1526 40.2612C-80.991 40.1978 -80.8294 40.1345 -80.6679 40.0712C-79.9194 39.8627 -79.4215 38.7515 -78.4876 39.2269C-78.1056 38.9211 -77.7173 38.623 -77.329 38.325C-77.106 38.0544 -76.8766 37.7914 -76.6543 37.5279C-75.6474 37.7474 -74.6406 37.9668 -73.6413 38.1927C-72.0142 39.2989 -70.534 39.299 -69.5206 37.4259C-68.9672 36.405 -68.1053 36.6609 -67.2848 36.5938C-66.7595 35.7263 -65.9907 35.6049 -65.102 35.8774L-64.6463 36.4724C-64.4899 36.4654 -64.3353 36.4795 -64.1757 36.5153C-63.1505 37.1551 -61.8396 37.303 -61.5051 38.9157C-61.2482 40.1383 -60.0604 39.7712 -59.1434 39.5C-58.7518 39.0106 -58.3601 38.5212 -57.9755 38.0312C-57.8229 37.9883 -57.6792 37.966 -57.5227 37.959C-56.6774 36.4537 -55.1731 38.3647 -54.236 37.329C-53.3072 37.9387 -52.3522 38.4941 -51.3525 38.947C-50.3527 39.4 -49.3082 39.7507 -48.2075 39.9503L-48.2004 39.951C-47.6664 39.5314 -47.2091 39.0196 -46.707 38.5616C-46.2049 38.1035 -45.6518 37.7069 -44.9417 37.5304C-44.437 37.1223 -43.8586 37.3028 -43.2942 37.3258C-42.57 37.2286 -41.8459 37.1314 -41.1224 37.0413C-40.8273 36.834 -40.5329 36.6338 -40.2448 36.4259C-39.8414 35.1075 -39.0422 34.1089 -37.6833 33.807C-36.5919 33.5659 -36.662 34.7232 -36.2465 35.2932C-36.2064 35.3962 -36.1725 35.4915 -36.1394 35.5939C-35.9574 35.6956 -35.7755 35.7973 -35.5872 35.9067C-34.3276 36.4615 -33.4654 37.6469 -32.1164 38.075C-31.9823 38.2362 -31.8623 38.3961 -31.7417 38.549C-31.6855 38.5542 -31.6287 38.5523 -31.5725 38.5574C-30.6243 38.6438 -29.7625 39.0558 -28.9403 39.67L-28.8663 39.7123C-27.3594 39.807 -26.6772 40.8697 -26.2581 42.0999C-25.9686 42.9636 -25.7704 43.7408 -24.6177 43.5266C-23.7427 42.8613 -23.1114 43.3162 -22.5274 43.9796C-22.583 44.1236 -22.5537 44.2682 -22.4733 44.3961C-22.2461 44.7006 -22.0265 45.0115 -21.86 45.3602C-21.7937 45.5649 -21.7491 45.7748 -21.7179 45.9763C-21.4874 46.0896 -21.2525 46.1535 -21.0207 46.1747C-19.8197 46.2841 -18.6214 45.3361 -17.4159 45.3182C-17.1832 44.8641 -16.9436 44.4105 -16.7046 43.964C-15.0151 44.0754 -13.3256 44.1868 -11.636 44.2982C-10.8663 43.3892 -10.2573 42.2243 -9.29031 41.6384C-7.76062 40.7064 -7.67838 39.4154 -7.72885 37.9492C-6.94526 37.5878 -6.01363 37.4669 -5.56501 36.5854C-4.91746 36.318 -4.25261 36.0948 -3.67456 35.736C-3.09721 35.3842 -2.60789 34.9108 -2.34006 34.1476C-1.74996 33.8892 -1.15217 33.6244 -0.554379 33.3596C-0.164752 32.9694 0.190232 33.1152 0.467888 33.4882C0.732083 33.8529 0.520497 34.309 0.59761 34.7063C0.868439 36.0081 1.38016 36.8423 2.76753 35.6845C2.97128 35.547 3.1744 35.4165 3.38514 35.2796C3.78388 34.6348 3.90167 33.9644 3.5846 33.2472C3.73591 33.2185 3.88664 33.1967 4.03608 33.189C4.91596 31.5379 5.85143 31.3748 6.75234 33.1457C7.25065 34.1277 8.15333 34.6357 8.95189 35.2761C8.96715 35.4194 8.98945 35.5633 9.01875 35.7079C8.85461 35.8774 8.79325 36.0847 8.76632 36.3022C8.9571 36.6957 9.13192 37.1089 9.29071 37.542C9.81711 38.4486 10.4668 39.3238 10.05 40.4778C9.97262 40.861 9.90221 41.2448 9.85924 41.6383C9.82212 41.8123 9.80608 41.9882 9.7971 42.1648C9.811 42.4002 9.82625 42.6215 10.012 42.681C10.8458 43.0905 11.6725 43.4994 12.5063 43.9089C13.5455 43.3082 14.2654 44.0337 15.0512 44.5026C15.3433 43.9403 15.6722 43.7504 16.0234 43.7824C16.3745 43.8144 16.7614 44.0767 17.1444 44.3812C17.2995 44.5444 17.4399 44.7133 17.572 44.8956C17.5847 44.911 17.5969 44.9333 17.602 44.9551C19.7544 45.1938 21.8466 45.7819 24.0176 45.8946C24.4473 45.9196 24.7779 46.2548 24.8046 46.7398C24.8454 46.7577 24.8863 46.7756 24.9201 46.7929C25.9918 46.1455 27.2992 46.7968 28.3894 46.2576C28.754 46.1418 29.1149 45.9903 29.4745 45.8527C31.5151 46.1523 31.7825 46.5598 30.7238 48.23C30.7238 48.23 30.7429 48.2531 30.7486 48.2678C32.0087 47.5738 33.4971 47.7946 34.8088 47.311C35.312 47.1511 35.7929 46.9253 36.3395 46.9893C37.0194 47.2216 37.7499 47.3662 38.279 47.8544L38.293 47.8556C38.5134 47.7693 38.7375 47.7187 38.9725 47.7047C41.2322 47.7758 43.5729 48.2801 45.4867 46.4749C45.6522 46.2913 45.8291 46.1371 46.0334 45.9925C46.22 45.8889 46.4186 45.8077 46.6229 45.7412C46.7169 45.4092 47.065 45.1642 47.3779 44.994C48.3321 44.4708 48.7259 43.5701 49.221 42.7212C50.0693 41.9612 51.0993 41.8493 52.1676 41.8616C52.2263 41.9166 52.294 41.9511 52.3603 41.9997C52.5242 41.2129 53.0452 41.0901 53.7647 41.3543C53.7565 39.7358 55.0127 38.9279 55.9818 37.9307C56.57 37.5373 57.2579 37.1387 57.9199 37.4119C61.0412 38.6756 64.2099 37.7866 67.3509 37.6684C68.7723 37.6135 69.8098 37.8854 69.8769 39.4809C69.9205 40.6344 70.7283 40.4738 71.4472 40.7451C73.0082 41.3344 75.0121 40.9494 76.1141 42.6109C78.2997 41.32 79.8621 41.4269 81.2733 42.9605C81.6464 43.9169 81.8676 44.9091 82.0447 45.9186C82.22 48.1909 83.2072 49.6362 85.7071 49.5589C90.2532 48.5542 94.228 50.4774 98.2654 52.0233C98.6689 52.1807 98.8692 52.6246 99.0376 53.0303C99.0478 53.0737 99.051 53.1166 99.0612 53.1601C99.2942 53.2452 99.51 53.3642 99.7085 53.5171C99.7736 53.5798 99.8311 53.6489 99.8885 53.718C102.09 52.8686 104.048 53.3804 105.45 55.1756C105.64 53.5539 106.765 53.4081 108.213 53.7601C109.106 54.2956 110.153 52.3618 111.009 53.3905C111.203 53.4295 111.389 53.4961 111.564 53.5901C111.996 53.8991 112.362 54.3156 112.91 54.4436C113.016 53.6657 113.055 52.6971 114.14 54.5416C114.325 54.8493 114.644 55.07 114.989 54.8602C116.213 54.099 117.199 54.6288 118.186 55.1374C118.487 55.101 118.792 55.0933 119.101 55.1285C119.325 55.078 119.553 55.0562 119.787 55.0562C120.811 55.3269 121.898 54.9009 122.933 55.0379C123.54 54.9797 124.131 54.8703 124.688 54.5876C124.648 54.4846 124.608 54.3816 124.603 54.2748C124.598 54.0189 124.647 53.7892 124.767 53.5659C124.913 53.3664 125.104 53.2135 125.319 53.0984C125.341 53.0932 125.362 53.0952 125.39 53.0977C125.503 51.7031 126.527 51.8106 127.732 52.1971C128.392 52.5624 129.041 52.9835 129.841 52.5171C131.763 51.4009 133.626 52.3229 135.518 52.6301C135.592 52.4311 135.734 52.2808 135.941 52.1861C137.147 52.1613 138.207 52.421 138.807 53.6039C139.018 53.9283 139.121 54.2782 139.036 54.6608C139.028 54.6742 139.02 54.6806 139.006 54.6863C139.338 55.0005 139.493 55.3977 139.523 55.8475C139.545 56.6158 139.462 57.3675 139.248 58.0929C139.422 58.8184 140.026 58.9515 141.377 58.585C143.242 58.088 145.515 57.238 146.879 59.7605C146.878 59.7676 146.864 59.7663 146.856 59.7797C149.443 61.463 149.502 58.4812 150.731 57.6637C150.841 57.546 150.937 57.5051 151.034 57.5281C151.036 57.5 151.053 57.4731 151.063 57.4456C151.864 56.1137 152.907 55.0806 154.252 54.2311C156.342 52.9032 158.254 53.0633 160.219 54.3493C160.552 54.5713 160.931 54.6909 161.308 54.8246C161.673 54.3256 161.964 53.6923 162.648 53.8043C162.692 53.78 162.723 53.7544 162.775 53.7308C163.577 53.7046 164.021 54.0501 164.052 54.7979C164.939 54.148 166.149 54.7904 167.058 54.2205C168.677 53.7791 170.454 53.8631 171.828 52.6189C172.136 52.3489 172.607 52.3848 172.978 52.674C172.675 51.6389 172.959 50.8559 173.94 50.3493C174.414 50.2789 174.883 50.2649 175.321 50.3544C175.894 50.1229 176.392 49.7852 176.583 49.0149C177.204 48.3407 177.767 47.6044 178.451 47.014C179.042 46.5144 179.79 45.6885 180.381 47.048C181.281 46.7256 181.78 47.6226 182.436 48.0442C183.366 48.4057 184.304 48.3776 185.186 47.9401C187.842 46.6211 190.156 47.3358 192.321 49.0658C193.396 50.0223 195.207 49.7332 196.065 51.0389C195.871 49.7511 197.168 49.5855 197.795 48.919C198.005 48.7891 198.239 48.704 198.49 48.6702C198.912 48.7015 199.317 48.6888 199.711 48.6466C199.815 48.5852 199.92 48.5238 200.025 48.4623C200.008 48.3401 199.998 48.2116 199.988 48.0901C200.545 45.3169 202.082 46.4857 203.473 47.0667C203.429 47.0129 203.383 46.9733 203.345 46.9202C203.167 46.5491 203.166 46.1659 203.202 45.7718C203.226 45.5044 203.313 45.2569 203.44 45.0272C204.359 43.3301 205.523 42.0596 207.709 42.4788C208.704 42.6689 209.443 41.7925 210.359 41.6064C210.365 41.536 210.392 41.4816 210.404 41.4189C210.5 41.1438 210.642 40.9085 210.838 40.6993C212.384 39.7475 213.961 38.9971 215.881 39.2147C218.153 39.4714 218.94 40.3876 218.52 42.5914C218.61 42.7699 218.691 42.9618 218.765 43.1601C218.771 43.1748 218.777 43.1895 218.776 43.2036C219.381 43.2446 220.028 43.3745 220.265 42.4809C221.59 41.3883 222.884 40.2362 224.781 40.48C224.828 40.4346 224.875 40.3892 224.916 40.3291C224.946 40.3035 224.977 40.2709 225.008 40.2453C224.972 40.022 225 39.7904 225.085 39.5569C225.557 38.8123 226.177 38.3012 227.11 38.3153C228.216 39.005 229.701 39.261 230.284 40.5559L230.305 40.5578C230.707 40.5732 231.1 40.6231 231.485 40.7434L231.828 41.1791C232.713 40.7134 233.552 41.2227 233.828 41.9219C234.33 43.1809 235.309 43.4689 236.3 43.8573C236.125 43.373 236.262 42.9526 236.65 42.5906C236.733 42.5343 236.822 42.4857 236.911 42.4371C236.906 42.2592 236.993 42.0897 237.177 41.9291C238.457 41.9535 239.755 42.2351 240.584 40.9128C240.631 40.7043 240.739 40.5367 240.88 40.3863C241.019 40.1861 241.201 40.0467 241.429 39.961C241.768 39.7364 242.127 39.5209 242.326 39.2125C242.465 38.9982 242.624 38.814 242.796 38.631C245.038 37.5014 246.126 35.2803 247.597 33.4348C247.966 32.9646 248.214 32.4196 248.797 32.1535C249.044 32.0908 249.293 32.078 249.544 32.1151C249.668 32.1548 249.79 32.2156 249.897 32.2822C249.536 31.2772 250.069 30.7865 251.145 30.6363C252.515 30.4489 253.874 30.4521 255.175 31.0247C255.228 31.2141 255.277 31.3818 255.311 31.5481C255.327 31.5283 255.336 31.5078 255.345 31.4873C257.001 30.3327 259.012 29.7993 260.446 28.1988C261.281 27.2745 262.31 27.0986 263.736 28.1581C264.89 29.0224 266.801 28.8703 268.43 29.1039C268.892 28.3158 269.503 28.2153 270.251 28.7093L270.254 28.674C270.737 28.271 271.206 28.328 271.654 28.6953C271.654 28.6953 271.677 28.6831 271.684 28.6767C271.672 28.6543 271.653 28.6313 271.641 28.6089C271.82 27.1919 272.487 26.8625 273.73 27.6002C274.167 27.8599 274.551 28.1504 274.88 28.4997C275.193 28.1024 275.511 27.7199 276.085 27.7084C277.717 28.0629 278.22 29.2299 278.382 30.6354C278.85 30.7134 279.223 30.9674 279.579 31.2623C279.843 31.3929 280.109 31.5023 280.391 31.5989C281.348 32.2892 283.254 32.1223 282.72 34.1669C282.593 34.3255 282.434 34.4388 282.263 34.5226C283.544 35.0792 284.517 35.8207 284.184 37.3016C284.964 36.6702 285.644 36.9805 286.37 37.9479C287.374 39.2811 288.245 40.7584 289.768 41.6138C290.516 41.8736 291.025 41.4232 291.545 40.9952C291.743 40.85 291.964 40.7566 292.195 40.6997C294.09 40.7375 295.181 42.2916 296.406 43.2973C297.712 44.36 298.661 44.8225 300.226 44.1279C300.964 43.7978 301.855 43.503 302.68 44.0039C302.201 42.6547 303.519 42.413 304.166 41.7624C304.358 41.6806 304.554 41.6204 304.749 41.5814C304.693 40.8028 305.39 40.3839 306.128 40.0468C307.111 39.5971 308.142 39.2441 309.004 38.5634C309.25 38.4368 309.503 38.3747 309.773 38.3639C311.871 38.6544 313.519 37.3642 315.342 36.7073C316.77 36.1918 317.995 36.1899 319.155 37.218C319.265 37.3274 319.345 37.4624 319.404 37.5955C321.269 36.3251 323.278 36.1109 325.035 36.9593C325.053 36.9254 325.069 36.8985 325.093 36.8653C325.276 36.5697 325.524 36.3369 325.817 36.1578C325.723 35.7874 325.766 35.3869 325.825 34.9807C326.868 30.2934 330.478 28.6003 334.562 27.4612C334.962 27.5047 335.326 27.474 335.666 27.3915C336.42 26.8926 337.153 26.3137 337.996 26.0712C338.406 25.768 338.823 25.4725 339.275 25.2512C339.694 25.0836 340.12 24.9097 340.541 24.728C341.396 24.5931 341.922 23.8677 342.662 23.5165C342.793 23.4858 342.921 23.4762 343.048 23.4807C342.857 22.8531 342.985 22.3042 343.781 22.1993C344.649 22.0798 344.688 22.8142 344.583 23.4219C344.401 24.4909 345.015 25.2068 345.585 25.954C345.802 26.8323 346.244 27.7312 345.603 28.5456C346.381 28.7938 346.819 29.5078 347.443 29.962C347.583 30.0599 347.707 30.1706 347.832 30.2813C348.359 30.6344 348.707 31.0848 348.914 31.6146C349.141 31.9971 349.338 32.4053 349.52 32.8192C349.611 33.0546 349.646 33.2919 349.653 33.5338C349.762 33.5792 349.863 33.631 349.973 33.6694C350.204 33.7756 350.404 33.9145 350.58 34.0866C350.662 34.1934 350.73 34.306 350.797 34.4256C352.662 34.3189 353.951 35.0892 354.361 37.2765C354.555 38.3301 355.226 38.8951 356.353 38.8913C359.177 38.9004 362.002 38.9165 364.537 37.3596C364.68 37.1881 364.831 37.0104 364.981 36.8396C364.908 35.3925 366.258 35.2671 367.067 34.9294C367.693 34.6742 368.003 35.703 368.256 36.3363C368.377 36.6453 368.72 37.159 368.734 37.1603C370.76 36.0607 372.988 37.8034 374.993 36.709C375.177 36.5484 375.356 36.3803 375.533 36.2191C375.773 35.1411 377.038 34.5469 376.918 33.3013C377.423 33.1203 377.935 32.9469 378.439 32.7729C378.922 32.526 379.263 32.4365 379.502 32.4583C380.359 32.5364 379.992 34 380.437 34.5515C381.631 34.6603 382.823 34.7903 384.016 34.9132L384.017 34.8991C384.052 34.363 384.087 33.8269 384.121 33.2908C384.357 32.8085 384.585 32.3255 384.813 31.8425C386.101 30.6828 387.499 30.7322 388.856 31.6151C389.405 31.9631 389.932 32.2453 390.539 32.3432C390.54 32.3362 390.541 32.3221 390.556 32.3163C390.74 32.1628 390.934 32.0457 391.149 31.9447C391.292 31.9293 391.441 31.9216 391.59 31.928C391.789 31.2934 392.134 30.7715 392.704 30.419C392.954 29.938 393.196 29.4492 393.446 28.9682C395.101 25.8764 396.642 25.6763 398.857 28.1841C399.518 28.9327 400.371 29.5213 401.139 30.1802L401.146 30.1809C401.421 29.3473 401.694 28.5208 401.975 27.6879C402.145 27.5331 402.316 27.3713 402.486 27.2094C403.562 27.3003 403.787 28.3213 404.39 28.9297C405.767 29.3674 407.242 29.5019 408.519 30.2498C411.024 29.0377 411.401 30.9524 411.902 32.6867C414.731 30.8656 416.75 32.639 418.7 34.321C419.745 35.2179 420.69 35.9569 422.114 35.2494C422.894 36.1009 423.708 36.5654 424.558 36.6429C425.408 36.7204 426.322 36.3993 427.259 35.6829L427.24 35.6598C427.59 35.0035 428.163 34.772 428.864 34.772C430.076 34.3716 431.293 34 432.488 33.5554C433.206 33.2874 433.702 33.5242 433.934 34.1626C434.737 36.3787 435.97 36.3775 437.315 35.8331C437.644 35.6502 437.957 35.395 438.259 35.0393C438.461 34.7597 438.638 34.4566 438.814 34.1604C439.05 33.82 439.279 33.4861 439.508 33.1452C441.074 32.3584 442.487 31.3873 443.628 30.051C443.655 29.9896 443.682 29.9282 443.703 29.8591C443.739 29.7702 443.782 29.6889 443.825 29.6077C443.819 29.5149 443.842 29.4177 443.922 29.3186C444.005 29.1772 444.075 29.0345 444.131 28.8836C444.319 28.7729 444.498 28.6686 444.685 28.558C444.9 28.3718 445.129 28.194 445.364 28.0239C445.48 27.9989 445.602 27.9816 445.717 27.9567C446.644 28.3534 447.541 28.3854 448.355 27.6863C448.562 27.2084 448.758 26.9992 448.926 27.0146C449.116 27.0318 449.282 27.3025 449.432 27.7631C450.346 27.7542 450.497 26.7959 451.112 26.4191C452.365 25.8095 452.946 26.3449 453.101 27.5937C456.109 28.3929 459.022 28.0624 461.871 26.9527C461.874 26.9175 461.849 26.8797 461.846 26.8368C462.074 26.6661 462.309 26.4889 462.537 26.3181C462.757 26.0046 462.977 25.6912 463.196 25.3848C464.321 23.6921 465.597 24.6031 466.856 25.1719C466.846 25.2775 466.836 25.383 466.827 25.4886C466.842 25.4828 466.849 25.4834 466.856 25.477C470.577 24.6667 474.305 23.9352 478.15 24.4133C479.102 24.5355 479.759 24.943 480.026 25.8898C481.169 27.3421 482.342 28.7617 484.379 28.9544C484.523 28.925 484.66 28.902 484.803 28.8797C484.917 28.1804 485.42 27.7863 485.943 27.4083C485.98 27.0782 486.018 26.7411 486.055 26.411C488.589 24.4849 491.419 25.2963 494.192 25.4781C495.171 25.539 495.283 26.4928 495.897 26.8965C495.715 27.192 495.525 27.487 495.335 27.7819C495.296 28.5233 495.428 29.1669 496.247 29.433C496.579 29.2859 496.913 29.1177 497.236 29.1471C497.447 29.1663 497.657 29.2707 497.853 29.5298C498.171 31.3965 500.716 32.6147 499.426 34.9522C499.587 35.13 499.74 35.3142 499.894 35.4985C500.77 35.7487 501.29 36.2644 501.251 37.2329C501.54 37.8694 502.014 38.2674 502.719 38.3743C503.883 36.4014 505.297 35.9626 507.069 37.6567C508.909 38.761 510.533 37.412 512.257 37.2215C512.749 37.3443 513.24 37.4742 513.739 37.5977C514.718 36.9491 515.711 36.3158 516.686 35.6454C517.539 35.0633 518.363 34.883 519.181 35.6955C519.365 35.698 519.541 35.707 519.724 35.7166L519.684 35.7768C521.666 35.0777 523.465 34.4611 524.568 37.2721C525.006 38.3763 526.758 37.8051 527.881 38.1487C529.677 37.3261 529.321 39.5146 530.28 39.8716C530.867 40.4289 531.378 41.2701 532.099 41.2862C532.141 40.9778 532.197 40.6708 532.233 40.3548C532.538 39.1835 533.304 38.3237 534.188 37.5529C534.63 37.132 535.263 36.9555 535.635 36.4431C535.805 36.2102 535.983 36.0419 536.158 35.9089C536.812 34.9538 537.787 35.0569 538.757 35.9116C539.53 36.5994 540.308 36.9257 541.155 36.9532C541.469 36.847 541.783 36.6628 542.109 36.3519C542.325 36.2368 542.558 36.1658 542.802 36.1313C542.886 36.146 542.955 36.1665 543.024 36.187C543.479 35.7744 544.024 35.5402 544.457 35.8422C546.221 37.0815 547.563 36.4233 548.891 35.6007C549.011 35.2214 549.109 34.8471 549.053 34.4447C549.628 33.1915 550.132 31.8609 551.778 31.6633C551.65 31.3677 551.708 31.1176 552.038 30.9136L552.019 30.8906C552.226 30.4056 552.504 29.9911 553.024 29.8113C553.119 28.7699 554.02 28.2844 554.881 27.7739C555.529 27.7266 556.155 27.5424 556.791 27.4088C556.773 27.2936 556.839 27.1862 557.004 27.0877C557.032 26.9412 557.065 26.8023 557.099 26.6635C557.424 26.6719 557.743 26.6725 558.068 26.6809C559.398 25.9152 559.877 26.9593 560.488 27.7884C561.811 29.5976 562.759 31.8552 565.442 32.0998C565.599 32.0928 565.761 32.0934 565.917 32.0935C566.09 31.9815 566.247 31.9744 566.386 32.0794C566.502 31.9764 566.619 31.8523 566.724 31.7058C568.024 31.2779 569.427 32.9029 570.674 31.4911C570.737 31.3478 570.793 31.1969 570.843 31.0452C571.029 30.9416 571.215 30.845 571.401 30.7484C572.45 29.7229 573.487 28.6822 574.727 27.8941C575.362 27.6965 576.04 27.7938 576.362 28.2985C577.802 30.53 580.386 31.7732 581.403 34.3776C582.127 36.2175 583.348 34.6329 584.345 34.6458C584.351 34.5825 584.377 34.5281 584.39 34.4654C585.439 33.0568 586.859 32.5547 588.583 32.2861C590.99 31.9094 593.294 31.0267 595.746 30.6968C597.273 30.4954 597.599 28.2403 599.266 27.8956C599.932 27.5022 600.491 26.9713 601.06 26.4698C602.85 26.0227 603.195 27.679 603.848 28.5971C604.369 29.3257 604.876 29.7551 605.483 29.8459C605.937 29.7666 606.383 29.6157 606.845 29.4379C606.9 28.5275 607.411 28.1981 608.282 28.6677C608.938 29.0113 609.529 29.2071 610.227 28.9231C610.391 28.7606 610.548 28.5904 610.705 28.4273C611.905 29.3953 612.395 31.3273 614.313 31.3389C614.314 31.3249 614.315 31.3178 614.316 31.3037C615.047 29.9654 615.927 30.1805 616.706 31.1881C617.36 32.0211 617.399 33.0677 617.544 34.1168C617.796 35.942 618.087 37.8702 620.321 38.535L615.217 169.902L615.037 169.935L614.257 166.217L612.497 167.114L610.143 165.281L609.927 167.646L607.262 169.226L606.163 165.905L603.886 166.329C603.886 166.329 602.183 166.521 601.578 167.027C600.972 167.532 598.748 170.416 598.715 169.292C598.676 168.167 598.26 165.043 598.26 165.043L595.781 166.129L594.248 169.126L592.586 165.838L590.64 165.661L588.541 167.243C588.541 167.243 585.664 165.016 585.701 164.6C585.739 164.185 583.642 165.676 583.642 165.676L582.501 167.395L580.423 168.746L578.451 167.303L576.251 168.365L572.501 169.57L570.899 167.175L571.089 165.092C571.089 165.092 567.417 167 567.002 166.962C566.588 166.924 565.675 166.138 565.675 166.138L562.18 166.104L560.42 168.469L558.186 165.321L555.701 168.039L556.005 164.697L554.703 163.599L552.849 165.53L550.641 165.194L548.199 167.355C548.199 167.355 547.385 168.679 547.167 167.964C546.949 167.241 546.362 166.067 546.426 165.37L546.614 163.308L543.434 164.395L543.32 165.648L542.289 167.711L541.362 165.611L539.929 167.496L538.124 167.331L537.42 165.812L536.042 165.545L533.819 166.939L531.35 167.92L529.609 168.606L527.74 167.591L526.718 166.519L525.137 166.935L523.384 169.301L520.177 170.691L517.536 170.45L515.579 171.953L513.18 170.613L512.108 170.097L511.273 171.561L509.559 173.512L503.863 172.993L502.473 174.406L501.223 174.292L500.629 173.116L498.027 174L493.066 176.216L491.49 175.093L488.268 173.537L485.494 173.284L484.875 172.383L483.071 173.765L480.01 175.026L476.68 174.723L475.743 175.758L473.109 175.518L470.705 177.265L468.698 179.324L469.052 175.432L467.541 175.153L465.494 176.087L461.757 177.151L460.227 178.552L458.338 176.279L455.825 176.192L454.058 175.605L451.264 175.493C451.264 175.493 449.988 175.66 449.765 175.079C449.535 174.491 448.769 173.726 448.769 173.726L446.971 174.959L446.882 175.938L444.817 177.147L443.878 175.103L443.061 173.34L441.697 174.479L440.874 175.809L439.676 176.679L437.871 176.514L437.96 175.543L435.925 176.337L435.097 176.261L434.387 174.799L433.494 173.873L431.294 174.936L429.578 173.8L428.15 175.628L426.064 175.438L426.331 172.518L424.303 173.319L423.493 174.508L422.518 175.959L421.937 174.643L420.573 175.782L420.661 174.811L419.15 174.531L417.595 176.213L416.485 176.112L416.688 173.888L414.399 175.922L413.072 176.645L413.313 173.999L411.962 174.997L410.655 174.034L409.743 174.795L408.633 176.24L405.157 175.924L404.481 174.173L403.76 174.391L400.935 174.694L400.187 173.647L399.294 172.721L398.077 175.278L396.813 173.758L395.858 175.076L394.467 174.949L392.98 172.848L392.118 171.507L392.016 172.619L390.078 172.442L389.216 171.1L387.8 171.255L385.555 171.327L384.649 170.542L383.373 169.163L381.887 168.609L380.808 168.092L379.22 168.65L378.27 169.826L376.078 170.882L374.725 170.34L374.661 171.037L373.501 173.038L370.875 174.197L370.09 175.112L368.7 174.985L368.738 174.563L366.059 174.744L364.84 172.809L363.245 171.82L361.894 174.364L360.924 174.276L361.039 173.024L360.394 172.404L359.194 171.734L358.347 173.339L358.182 175.147L356.747 174.03L355.202 172.492L354.539 172.147L354.463 172.985L352.454 173.504L352.353 174.616L350.126 174.413L348.654 175.258L346.607 176.193L345.898 174.73L346.025 173.337L344.725 175.326L344.509 177.69L342.506 176.663L341.455 178.951L341.392 179.648L340.243 178.422L340.293 177.866L338.476 177.843L337.443 178.444L336.383 176.247L336.574 174.157L335.891 173.953L334.705 174.689L333.251 175.259L331.446 175.094L331.344 176.206L329.501 176.457L328.933 175.007L327.581 176.005L326.606 177.456L326.758 175.788L325.131 175.221L323.971 175.676L321.33 175.435L321.81 177.863L321.178 177.103L320.005 177.699L319.132 179.585L317.658 177.343L317.86 175.119L317.139 173.79L316.105 172.852L315.245 174.597L314.021 175.748L312.101 175.297L312.241 173.763L313.088 172.158L311.545 173.699L310.213 174.564L309.453 173.651L307.852 172.802L306.94 173.563L307.054 172.311L305.74 171.347L303.189 171.675L301.409 171.236L300.503 170.451L298.839 170.299L296.88 170.262L294.782 170.206L293.876 169.428L292.97 168.643L291.593 169.915L290.949 169.296L288.582 170.627L288.329 173.407L287.319 170.654L285.719 171.345L284.169 169.941L283.954 172.306L282.193 173.131L280.427 174.092L278.864 172.828L278.155 171.358L276.708 171.929L275.973 170.741L275.353 168.3L275.201 169.968L271.898 170.93L272.101 168.706L270.914 167.896L269.786 169.475L268.108 167.917L266.718 169.337L266.528 171.42L264.447 169.69L263.172 169.851L261.806 167.903C261.806 167.903 260.32 168.896 260.398 169.598C260.468 170.307 260.117 172.524 260.117 172.524L258.503 168.865L259.433 167.829L257.666 167.249L257.78 165.996L256.333 166.567L255.051 168.274L253.515 168.275L251.468 169.21C251.468 169.21 250.722 169.702 250.486 169.255C250.243 168.814 249.84 167.096 249.84 167.096L248.604 168.388L246.684 169.476L245.332 168.927L245.205 170.321L243.955 170.207L243.074 169.147L241.76 168.183L239.979 166.197L239.814 168.006L238.437 169.285L236.998 172.801L235.166 171.371L233.706 170.536L233.896 168.446L231.435 169.342L230.452 167.855L230.756 164.512L229.072 166.048L227.975 164.259L226.775 163.589L227.067 160.387L225.855 161.405C225.855 161.405 225.212 162.325 224.848 161.732C224.478 161.137 224.241 159.15 224.241 159.15L224.406 157.342L222.512 158.148L221.855 157.67L220.884 156.042L221.783 153.874L219.864 154.962L218.436 156.798L216.86 155.675L215.379 154.979L213.938 155.409L213.121 153.645L211.909 153.116L212.327 148.528L209.062 148.997L208.1 150.385L205.772 151.294L204.509 151.321C204.509 151.321 203.088 151.61 202.691 151.297C202.302 150.978 201.619 149.234 201.619 149.234L201.416 151.458L199.133 151.952L199.272 150.425L197.755 151.684L196.492 151.711L195.146 151.17L194.604 149.432L193.162 149.868L192.959 152.092L191.568 151.965L190.018 150.561C190.018 150.561 190.375 149.749 190.119 149.449C189.871 149.142 188.18 147.725 188.18 147.725L188.237 147.099L185.8 147.65L184.443 148.789L182.357 148.599L180.878 149.444L178.755 151.216L177.219 152.757L175.336 151.89L175.171 153.699L173.475 155.368L172.219 153.848L170.942 152.469L170.271 150.584L169.15 152.164L167.626 152.025L164.353 151.024L163.167 151.76L162.472 151.697L161.351 153.276L159.188 152.377L158.302 154.403L155.464 154.847L154.214 154.733L153.321 153.808L152.56 151.354L151.35 153.912L150.54 155.101L149.445 156.399L149.305 157.933L148.112 158.669L146.925 157.858L145.548 159.13L144.09 161.381L141.716 159.767L141.855 158.233L140.794 154.489L140.426 158.529L139.176 158.415L137.812 159.553L136.786 161.56L135.032 160.84L133.986 161.589L132.557 160.33L131.384 160.926L131.244 162.46L128.483 163.613L127.418 164.495L126.232 163.685L126.168 164.381L124.166 163.354L122.935 166.052L120.679 167.812L120.124 167.761L119.568 166.164L120.562 164.431L118.822 166.656L117.278 166.658L116.206 166.141L114.299 165.542L114.753 168.251L113.906 169.855L112.522 169.729L111.764 170.363L106.903 169.92L105.838 170.802L103.9 170.625L104.128 168.127L103.205 170.562L102.357 172.173L101.247 172.072L100.767 169.644L99.8563 171.945L98.8114 172.687L99.0397 170.182L97.3816 171.436L96.1705 172.446L95.3347 172.37L95.563 169.865L94.0082 173.094L92.1397 173.626L91.2973 172.144L90.2646 172.753L89.3647 171.826L88.548 171.617L87.2793 173.183L85.8899 174.596L84.7481 173.371L83.2561 174.356L83.1926 175.053L81.528 174.901L80.0745 177.018L79.0469 175.938L78.1411 175.153L76.7504 175.026L76.8518 173.914L74.2424 171.853L74.0775 173.661L72.4751 171.273L71.5373 170.762L71.2705 173.689L70.3532 174.585L69.5552 174.093L68.4962 173.436L66.2838 174.632L64.9252 174.232L65.381 172.961L66.237 170.563L63.4075 175.499C63.4075 175.499 62.2465 174.406 62.2843 173.991L62.4492 172.183L61.3785 173.206L59.9378 175.182L58.712 173.247L57.0231 174.917L56.0103 176.783L55.3906 175.889L53.9049 175.328L53.6381 178.255L52.8023 178.179L50.8832 179.267L50.9467 178.57L48.663 177.518L47.3993 175.998L47.2467 177.673L45.679 179.488L44.7591 177.304L43.9753 178.212C43.9753 178.212 42.9817 179.945 42.6238 179.21C42.2722 178.482 40.9008 176.668 40.9008 176.668L39.7712 176.707L38.8661 177.469L38.8026 178.166C38.8026 178.166 38.4293 179.154 38.0297 178.954C37.63 178.754 36.0469 177.631 36.0469 177.631L34.8865 178.086L34.696 180.176L33.925 180.943L32.8153 180.842L31.202 181.681L29.8504 182.679L29.7113 184.206L26.3751 183.902L25.47 184.664L24.4674 183.309L24.3532 184.562C24.3532 184.562 23.6971 185.623 23.0017 185.56L20.9227 185.37C20.9227 185.37 18.8515 188.126 19.1882 187.461C19.5327 186.79 20.3909 181.958 20.3909 181.958L19.1606 180.072L18.0617 178.376L18.4467 183.321L18.2818 185.129L16.6923 182.601L15.9713 182.819L14.2689 183.082L13.2476 182.01L13.476 179.505L11.5318 180.867L10.1167 182.562L9.52274 181.387L9.62407 180.275L7.85813 181.235C7.85813 181.235 7.35391 180.628 7.27693 179.919C7.19996 179.209 6.75923 177.906 6.75923 177.906C6.75923 177.906 4.9677 179.148 4.76308 178.285L4.56481 177.429L1.87458 179.285L-0.625794 179.057L-3.43854 179.226L-5.65221 178.882L-7.01662 180.021L-9.2104 179.537C-9.2104 179.537 -8.67988 181.409 -9.37524 181.346C-10.0705 181.282 -12.3683 178.831 -12.3683 178.831L-13.1727 176.934L-13.0206 175.266L-14.6269 177.504L-15.7366 177.403L-18.6321 178.402C-18.6321 178.402 -19.4615 176.779 -19.4108 176.223L-19.1068 172.888L-21.4462 175.477L-22.5424 176.782L-24.0544 174.956L-26.517 174.313L-28.5394 173.426L-29.6948 170.795L-29.5556 169.268L-30.9328 170.547L-31.6416 169.078L-34.1163 168.568L-34.9843 167.368L-36.2473 167.395L-36.4121 169.203L-38.4346 168.316L-37.9041 170.188L-38.7008 171.237L-40.0407 170.554L-41.0979 172.984L-41.7689 171.099L-41.6297 169.572L-42.9812 170.57L-44.9268 170.393L-45.6285 168.924L-47.2688 166.951L-47.1296 165.424L-48.6922 164.153L-48.959 167.081L-52.7603 167.295L-52.5954 165.486L-54.9868 167.092L-56.4602 166.397L-58.3294 165.382L-60.0191 165.505L-61.3718 164.963L-62.495 163.456L-64.0968 162.614L-64.9769 161.548L-64.8627 160.295L-66.1321 161.868L-67.821 163.538L-68.8352 163.864L-69.4978 163.52L-70.6845 162.709L-72.3427 163.963L-73.1714 163.887L-74.2568 161.965L-75.5962 162.829L-76.432 162.753L-77.1786 161.699L-77.7655 160.524L-79.5385 161.484L-80.6483 161.382C-80.6483 161.382 -82.504 161.774 -82.3129 161.231C-82.1217 160.688 -81.3892 158.789 -81.3892 158.789L-83.2642 160.867L-85.1449 161.533L-85.0308 160.281L-87.2123 159.663L-88.7621 159.806C-88.7621 159.806 -89.7628 161.538 -89.8519 160.962C-89.9417 160.394 -90.4651 158.522 -90.4651 158.522L-91.8102 160.926L-94.0297 160.723L-93.8648 158.915L-95.6302 161.422L-95.4782 159.754L-96.9573 160.598C-96.9573 160.598 -98.3224 160.19 -98.425 159.762C-98.5206 159.335 -99.2293 157.865 -99.2293 157.865L-101.124 158.679L-100.984 157.145L-103.936 157.294L-105.431 155.2L-105.228 152.969L-106.591 155.655L-106.073 157.66L-108.166 156.072L-107.976 153.982L-109.658 157.057L-111.01 158.055L-112.828 156.484L-114.71 157.157L-114.824 158.41L-117.032 156.527L-118.772 157.205L-120.202 155.954L-121.094 156.575L-123.671 155.638L-122.898 157.95L-124.621 156.814L-125.871 158.247L-128.997 155.713L-130.196 156.59L-132.306 158.221L-134.137 156.791L-135.751 156.083L-137.517 157.044L-139.465 152.233L-138.767 156.93L-139.909 157.102L-140.815 156.317L-141.069 159.104L-142.862 157.259L-142.977 158.511L-145.17 159.575L-146.21 158.635L-146.988 158.004L-148.301 160.126L-149.564 158.606C-149.564 158.606 -151.536 158.711 -151.638 158.283C-151.733 157.848 -152.162 156.411 -152.162 156.411L-153.391 160.649L-154.456 161.531L-156.42 161.636L-159.475 159.81L-161.682 159.467L-163.328 160.58L-164.653 162.844L-166.497 161.554L-168.742 161.634L-169.539 162.682L-171.158 165.061L-171.744 164.887Z" fill="#121212"/>
</svg>
