<svg width="26" height="24" viewBox="0 0 26 24" fill="none" xmlns="http://www.w3.org/2000/svg">
<path d="M12.9614 0.716797C5.85515 0.716797 0.0971166 5.39568 0.0971166 11.1702C0.0971166 13.5639 1.09772 15.7561 2.75619 17.5125C2.00837 19.4977 0.450923 21.1752 0.425795 21.1938C0.0928448 21.5456 0.00489576 22.0608 0.193358 22.5005C0.388142 22.9403 0.818439 23.2317 1.30191 23.2317C4.39269 23.2317 6.7849 21.9376 8.2926 20.9074C9.69978 21.3622 11.318 21.6235 12.9614 21.6235C20.0677 21.6235 25.7819 16.9431 25.7819 11.1702C25.7819 5.39719 20.0677 0.716797 12.9614 0.716797ZM12.9665 19.2112C11.6221 19.2112 10.2968 19.0039 9.02735 18.6021L7.88401 18.244L6.90401 18.9351C6.18785 19.4437 5.20132 20.0095 4.01425 20.3925C4.3849 19.7834 4.73644 19.0984 5.01336 18.3697L5.54708 16.9625L4.51079 15.8634C3.60466 14.8942 2.51158 13.291 2.51158 11.1702C2.51158 6.73502 7.19801 3.12911 12.965 3.12911C18.7319 3.12911 23.4183 6.73502 23.4183 11.1702C23.4183 15.6053 18.7309 19.2112 12.9665 19.2112Z" fill="white"/>
</svg>
