<svg width="49" height="29" viewBox="0 0 49 29" fill="none" xmlns="http://www.w3.org/2000/svg">
<path d="M0.101074 24.6594C0.101074 18.122 0.101074 11.5847 0.101074 5.04733C0.126975 4.99103 0.165611 4.93729 0.176944 4.87807C0.653304 2.38892 2.57443 0.72669 5.03582 0.724439C13.8616 0.716371 22.6874 0.715272 31.5132 0.724796C34.3147 0.72782 36.4242 2.90732 36.4457 5.7808C36.4539 6.88627 36.4461 7.99186 36.449 9.09738C36.4493 9.21068 36.4724 9.32391 36.4849 9.43718C36.5281 9.46221 36.5712 9.48724 36.6144 9.51228C36.7156 9.36892 36.8001 9.20851 36.9205 9.08475C38.7981 7.15517 40.6741 5.22392 42.5639 3.30697C43.5826 2.27373 44.7989 1.9558 46.138 2.50977C47.4339 3.0459 48.1565 4.09671 48.1623 5.52653C48.1876 11.743 48.1766 17.9597 48.1693 24.1763C48.1683 25.0436 47.856 25.8046 47.2621 26.4287C45.9317 27.8266 43.9362 27.7927 42.4969 26.3323C40.6185 24.4263 38.755 22.5048 36.8841 20.591C36.7695 20.4737 36.6459 20.3655 36.4472 20.1784C36.4472 21.4552 36.462 22.6188 36.4402 23.7817C36.431 24.2742 36.4017 24.78 36.2839 25.2544C35.7254 27.5047 33.7854 28.9834 31.4192 28.9843C22.656 28.9874 13.8928 28.9855 5.1296 28.9853C5.02008 28.9853 4.91038 28.9859 4.80107 28.9802C3.36696 28.9049 2.18821 28.3042 1.24841 27.1919C0.627722 26.4573 0.319938 25.5812 0.101074 24.6594ZM13.7642 14.8082C13.7642 16.5049 13.7641 18.2015 13.7642 19.8982C13.7643 20.6096 14.0163 21.1817 14.6584 21.5135C15.27 21.8296 15.858 21.7043 16.375 21.3011C18.563 19.5946 20.7506 17.8871 22.9146 16.1491C23.8055 15.4337 23.8009 14.2671 22.9093 13.5522C20.744 11.8159 18.5553 10.11 16.3704 8.39925C15.9564 8.07502 15.4851 7.9333 14.9607 8.08186C14.176 8.30413 13.772 8.88774 13.7664 9.86217C13.7569 11.5108 13.7638 13.1595 13.7642 14.8082Z" fill="#F0E74D"/>
</svg>
