<svg width="28" height="24" viewBox="0 0 28 24" fill="none" xmlns="http://www.w3.org/2000/svg">
<path d="M13.2961 2.87156L13.8677 3.48945L14.4856 2.87259C16.2105 1.19143 18.5997 0.426275 20.9476 0.817089C24.4953 1.4082 27.0956 4.47807 27.0956 8.07726V8.37591C27.0956 10.5128 26.21 12.5569 24.6447 14.0141L15.3403 22.7006C14.9541 23.061 14.4444 23.2618 13.914 23.2618C13.3837 23.2618 12.8739 23.061 12.4877 22.7006L3.18286 14.0141C1.6196 12.5569 0.732422 10.5128 0.732422 8.37591V8.07726C0.732422 4.47807 3.33373 1.4082 6.8804 0.817089C9.18203 0.426275 11.6175 1.19143 13.2961 2.87156C13.2961 2.87208 13.2498 2.87156 13.2961 2.87156ZM13.8677 6.98566L11.5506 4.5759C10.4333 3.50387 8.84734 2.99514 7.28717 3.25465C4.93148 3.64753 3.20397 5.6881 3.20397 8.07726V8.37591C3.20397 9.82794 3.80693 11.2182 4.86918 12.2068L13.914 20.6513L22.9609 12.2068C24.0216 11.2182 24.6241 9.82794 24.6241 8.37591V8.07726C24.6241 5.6881 22.894 3.64753 20.5409 3.25465C18.9807 2.99514 17.3948 3.50387 16.2774 4.5759L13.8677 6.98566Z" fill="white"/>
</svg>
