<svg width="57" height="57" viewBox="0 0 57 57" fill="none" xmlns="http://www.w3.org/2000/svg">
<g clip-path="url(#clip0_1_997)">
<rect x="0.130859" y="8.13306" width="48.8864" height="48.8864" rx="24.4432" transform="rotate(-9.48097 0.130859 8.13306)" fill="#2A2A2A"/>
<path d="M22.6351 4.37478C23.7022 4.19658 24.7692 4.01838 25.8363 3.84018C26.4208 3.81531 27.0043 3.77895 27.5884 3.76871C33.4075 3.66688 38.6808 5.31373 43.2468 8.92728C49.6309 13.98 52.7941 20.6628 52.6831 28.7895C52.5995 34.9495 50.3546 40.3396 46.1586 44.8471C41.5152 49.8348 35.7153 52.4036 28.918 52.6523C24.8272 52.8021 20.9247 51.9243 17.2824 50.0497C11.3122 46.9762 7.22306 42.252 5.05598 35.884C4.82601 35.2095 4.63376 34.5229 4.42407 33.8422C4.24585 32.775 4.06764 31.7079 3.88942 30.6407C3.86484 30.0406 3.82957 29.4403 3.81757 28.84C3.74336 25.2018 4.3847 21.6962 5.89257 18.3796C8.88191 11.8032 13.7968 7.32597 20.6434 4.99157C21.3013 4.76726 21.9711 4.57975 22.6351 4.37478ZM23.4366 39.7829C28.9147 35.2698 34.3347 30.8033 39.8187 26.2854C33.1497 23.7892 26.5707 21.3266 19.9399 18.8444L23.4366 39.7829Z" fill="white"/>
</g>
<defs>
<clipPath id="clip0_1_997">
<rect x="0.130859" y="8.13306" width="48.8864" height="48.8864" rx="24.4432" transform="rotate(-9.48097 0.130859 8.13306)" fill="white"/>
</clipPath>
</defs>
</svg>
